<mxfile host="app.diagrams.net" modified="2023-06-01T13:41:13.034Z" agent="Mozilla/5.0 (Windows NT 10.0; Win64; x64) AppleWebKit/537.36 (KHTML, like Gecko) Chrome/113.0.0.0 Safari/537.36" version="21.2.4" etag="zgeK5wRQoHTeDn3QqIZq" type="github">
  <diagram name="Page-1" id="s_HKggdEhuDX5l6ZHOeC">
    <mxGraphModel>
      <root>
        <mxCell id="0" />
        <mxCell id="1" parent="0" />
      </root>
    </mxGraphModel>
  </diagram>
</mxfile>
